<?xml version="1.0" standalone="no"?><svg xmlns="http://www.w3.org/2000/svg" viewBox="0 0 1440 320"><path fill="#ff84c6" fill-opacity="1" d="M0,320L26.7,309.3C53.3,299,107,277,160,250.7C213.3,224,267,192,320,192C373.3,192,427,224,480,245.3C533.3,267,587,277,640,256C693.3,235,747,181,800,170.7C853.3,160,907,192,960,170.7C1013.3,149,1067,75,1120,90.7C1173.3,107,1227,213,1280,261.3C1333.3,309,1387,299,1413,293.3L1440,288L1440,0L1413.3,0C1386.7,0,1333,0,1280,0C1226.7,0,1173,0,1120,0C1066.7,0,1013,0,960,0C906.7,0,853,0,800,0C746.7,0,693,0,640,0C586.7,0,533,0,480,0C426.7,0,373,0,320,0C266.7,0,213,0,160,0C106.7,0,53,0,27,0L0,0Z"></path></svg>